<svg viewBox="4.999999046325684 4.999999046325684 1019.0753173828125 546.5045166015625" style="max-width: 100%;" xmlns="http://www.w3.org/2000/svg" width="3000px" id="graph-div" height="2700px" xmlns:xlink="http://www.w3.org/1999/xlink"><style>@import url("https://cdnjs.cloudflare.com/ajax/libs/font-awesome/6.2.1/css/all.min.css");'</style><style>#graph-div {font-family:"trebuchet ms",verdana,arial,sans-serif;font-size:16px;fill:#333;}#graph-div .error-icon{fill:#552222;}#graph-div .error-text{fill:#552222;stroke:#552222;}#graph-div .edge-thickness-normal{stroke-width:2px;}#graph-div .edge-thickness-thick{stroke-width:3.5px;}#graph-div .edge-pattern-solid{stroke-dasharray:0;}#graph-div .edge-pattern-dashed{stroke-dasharray:3;}#graph-div .edge-pattern-dotted{stroke-dasharray:2;}#graph-div .marker{fill:#333333;stroke:#333333;}#graph-div .marker.cross{stroke:#333333;}#graph-div svg{font-family:"trebuchet ms",verdana,arial,sans-serif;font-size:16px;}#graph-div .edge{stroke-width:3;}#graph-div .section--1 rect,#graph-div .section--1 path,#graph-div .section--1 circle,#graph-div .section--1 path{fill:hsl(240, 100%, 76.2745098039%);}#graph-div .section--1 text{fill:#ffffff;}#graph-div .node-icon--1{font-size:40px;color:#ffffff;}#graph-div .section-edge--1{stroke:hsl(240, 100%, 76.2745098039%);}#graph-div .edge-depth--1{stroke-width:17;}#graph-div .section--1 line{stroke:hsl(60, 100%, 86.2745098039%);stroke-width:3;}#graph-div .disabled,#graph-div .disabled circle,#graph-div .disabled text{fill:lightgray;}#graph-div .disabled text{fill:#efefef;}#graph-div .section-0 rect,#graph-div .section-0 path,#graph-div .section-0 circle,#graph-div .section-0 path{fill:hsl(60, 100%, 73.5294117647%);}#graph-div .section-0 text{fill:black;}#graph-div .node-icon-0{font-size:40px;color:black;}#graph-div .section-edge-0{stroke:hsl(60, 100%, 73.5294117647%);}#graph-div .edge-depth-0{stroke-width:14;}#graph-div .section-0 line{stroke:hsl(240, 100%, 83.5294117647%);stroke-width:3;}#graph-div .disabled,#graph-div .disabled circle,#graph-div .disabled text{fill:lightgray;}#graph-div .disabled text{fill:#efefef;}#graph-div .section-1 rect,#graph-div .section-1 path,#graph-div .section-1 circle,#graph-div .section-1 path{fill:hsl(80, 100%, 76.2745098039%);}#graph-div .section-1 text{fill:black;}#graph-div .node-icon-1{font-size:40px;color:black;}#graph-div .section-edge-1{stroke:hsl(80, 100%, 76.2745098039%);}#graph-div .edge-depth-1{stroke-width:11;}#graph-div .section-1 line{stroke:hsl(260, 100%, 86.2745098039%);stroke-width:3;}#graph-div .disabled,#graph-div .disabled circle,#graph-div .disabled text{fill:lightgray;}#graph-div .disabled text{fill:#efefef;}#graph-div .section-2 rect,#graph-div .section-2 path,#graph-div .section-2 circle,#graph-div .section-2 path{fill:hsl(270, 100%, 76.2745098039%);}#graph-div .section-2 text{fill:#ffffff;}#graph-div .node-icon-2{font-size:40px;color:#ffffff;}#graph-div .section-edge-2{stroke:hsl(270, 100%, 76.2745098039%);}#graph-div .edge-depth-2{stroke-width:8;}#graph-div .section-2 line{stroke:hsl(90, 100%, 86.2745098039%);stroke-width:3;}#graph-div .disabled,#graph-div .disabled circle,#graph-div .disabled text{fill:lightgray;}#graph-div .disabled text{fill:#efefef;}#graph-div .section-3 rect,#graph-div .section-3 path,#graph-div .section-3 circle,#graph-div .section-3 path{fill:hsl(300, 100%, 76.2745098039%);}#graph-div .section-3 text{fill:black;}#graph-div .node-icon-3{font-size:40px;color:black;}#graph-div .section-edge-3{stroke:hsl(300, 100%, 76.2745098039%);}#graph-div .edge-depth-3{stroke-width:5;}#graph-div .section-3 line{stroke:hsl(120, 100%, 86.2745098039%);stroke-width:3;}#graph-div .disabled,#graph-div .disabled circle,#graph-div .disabled text{fill:lightgray;}#graph-div .disabled text{fill:#efefef;}#graph-div .section-4 rect,#graph-div .section-4 path,#graph-div .section-4 circle,#graph-div .section-4 path{fill:hsl(330, 100%, 76.2745098039%);}#graph-div .section-4 text{fill:black;}#graph-div .node-icon-4{font-size:40px;color:black;}#graph-div .section-edge-4{stroke:hsl(330, 100%, 76.2745098039%);}#graph-div .edge-depth-4{stroke-width:2;}#graph-div .section-4 line{stroke:hsl(150, 100%, 86.2745098039%);stroke-width:3;}#graph-div .disabled,#graph-div .disabled circle,#graph-div .disabled text{fill:lightgray;}#graph-div .disabled text{fill:#efefef;}#graph-div .section-5 rect,#graph-div .section-5 path,#graph-div .section-5 circle,#graph-div .section-5 path{fill:hsl(0, 100%, 76.2745098039%);}#graph-div .section-5 text{fill:black;}#graph-div .node-icon-5{font-size:40px;color:black;}#graph-div .section-edge-5{stroke:hsl(0, 100%, 76.2745098039%);}#graph-div .edge-depth-5{stroke-width:-1;}#graph-div .section-5 line{stroke:hsl(180, 100%, 86.2745098039%);stroke-width:3;}#graph-div .disabled,#graph-div .disabled circle,#graph-div .disabled text{fill:lightgray;}#graph-div .disabled text{fill:#efefef;}#graph-div .section-6 rect,#graph-div .section-6 path,#graph-div .section-6 circle,#graph-div .section-6 path{fill:hsl(30, 100%, 76.2745098039%);}#graph-div .section-6 text{fill:black;}#graph-div .node-icon-6{font-size:40px;color:black;}#graph-div .section-edge-6{stroke:hsl(30, 100%, 76.2745098039%);}#graph-div .edge-depth-6{stroke-width:-4;}#graph-div .section-6 line{stroke:hsl(210, 100%, 86.2745098039%);stroke-width:3;}#graph-div .disabled,#graph-div .disabled circle,#graph-div .disabled text{fill:lightgray;}#graph-div .disabled text{fill:#efefef;}#graph-div .section-7 rect,#graph-div .section-7 path,#graph-div .section-7 circle,#graph-div .section-7 path{fill:hsl(90, 100%, 76.2745098039%);}#graph-div .section-7 text{fill:black;}#graph-div .node-icon-7{font-size:40px;color:black;}#graph-div .section-edge-7{stroke:hsl(90, 100%, 76.2745098039%);}#graph-div .edge-depth-7{stroke-width:-7;}#graph-div .section-7 line{stroke:hsl(270, 100%, 86.2745098039%);stroke-width:3;}#graph-div .disabled,#graph-div .disabled circle,#graph-div .disabled text{fill:lightgray;}#graph-div .disabled text{fill:#efefef;}#graph-div .section-8 rect,#graph-div .section-8 path,#graph-div .section-8 circle,#graph-div .section-8 path{fill:hsl(150, 100%, 76.2745098039%);}#graph-div .section-8 text{fill:black;}#graph-div .node-icon-8{font-size:40px;color:black;}#graph-div .section-edge-8{stroke:hsl(150, 100%, 76.2745098039%);}#graph-div .edge-depth-8{stroke-width:-10;}#graph-div .section-8 line{stroke:hsl(330, 100%, 86.2745098039%);stroke-width:3;}#graph-div .disabled,#graph-div .disabled circle,#graph-div .disabled text{fill:lightgray;}#graph-div .disabled text{fill:#efefef;}#graph-div .section-9 rect,#graph-div .section-9 path,#graph-div .section-9 circle,#graph-div .section-9 path{fill:hsl(180, 100%, 76.2745098039%);}#graph-div .section-9 text{fill:black;}#graph-div .node-icon-9{font-size:40px;color:black;}#graph-div .section-edge-9{stroke:hsl(180, 100%, 76.2745098039%);}#graph-div .edge-depth-9{stroke-width:-13;}#graph-div .section-9 line{stroke:hsl(0, 100%, 86.2745098039%);stroke-width:3;}#graph-div .disabled,#graph-div .disabled circle,#graph-div .disabled text{fill:lightgray;}#graph-div .disabled text{fill:#efefef;}#graph-div .section-10 rect,#graph-div .section-10 path,#graph-div .section-10 circle,#graph-div .section-10 path{fill:hsl(210, 100%, 76.2745098039%);}#graph-div .section-10 text{fill:black;}#graph-div .node-icon-10{font-size:40px;color:black;}#graph-div .section-edge-10{stroke:hsl(210, 100%, 76.2745098039%);}#graph-div .edge-depth-10{stroke-width:-16;}#graph-div .section-10 line{stroke:hsl(30, 100%, 86.2745098039%);stroke-width:3;}#graph-div .disabled,#graph-div .disabled circle,#graph-div .disabled text{fill:lightgray;}#graph-div .disabled text{fill:#efefef;}#graph-div .section-root rect,#graph-div .section-root path,#graph-div .section-root circle{fill:hsl(240, 100%, 46.2745098039%);}#graph-div .section-root text{fill:#ffffff;}#graph-div .icon-container{height:100%;display:flex;justify-content:center;align-items:center;}#graph-div .edge{fill:none;}#graph-div :root{--mermaid-font-family:"trebuchet ms",verdana,arial,sans-serif;}</style><g></g><g></g><g class="mindmap-edges"><path class="edge section-edge--1 edge-depth-1" d="M 621.4830608429481,374.8319740600834 L 675.7774105801083,398.75691538176187 L730.0717603172684,422.68185670344036"></path><path class="edge section-edge--1 edge-depth-1" d="M 601.0350954974672,382.1931216448289 L 586.1402929465022,411.9088072961399 L571.2454903955372,441.6244929474509"></path><path class="edge section-edge--1 edge-depth-0" d="M 561.006117557287,291.6987620330618 L 580.4921343422408,323.828294327259 L599.9781511271946,355.9578266214562"></path><path class="edge section-edge-0 edge-depth-2" d="M 386.3820062086957,447.19611534647737 L 378.1311222334127,477.63873531452145 L369.88023825812974,508.08135528256554"></path><path class="edge section-edge-0 edge-depth-1" d="M 386.9595185328757,356.2363358489225 L 388.30486960447865,386.98455707674213 L389.65022067608163,417.73277830456175"></path><path class="edge section-edge-0 edge-depth-2" d="M 217.93859559365825,372.3886858628691 L 183.78465144039967,398.303907531311 L149.6307072871411,424.21912919975296"></path><path class="edge section-edge-0 edge-depth-1" d="M 371.4509749398055,343.34648504914526 L 308.09595261768874,352.28618880620877 L244.74093029557193,361.2258925632724"></path><path class="edge section-edge-0 edge-depth-0" d="M 539.17664206416,284.123887142601 L 469.7657343270097,310.0619349834862 L400.35482658985933,335.9999828243714"></path><path class="edge section-edge-1 edge-depth-2" d="M 280.41821581584236,221.85011561495827 L 188.139555198013,218.05303982361053 L95.86089458018364,214.2559640322628"></path><path class="edge section-edge-1 edge-depth-1" d="M 455.19993166817414,195.75783309025488 L 382.7001112134472,207.87588131468377 L310.20029075872026,219.99392953911266"></path><path class="edge section-edge-1 edge-depth-2" d="M 378.273218059144,112.12984734519765 L 291.0477230183779,105.27342052320407 L203.82222797761173,98.41699370121049"></path><path class="edge section-edge-1 edge-depth-2" d="M 407.23145530037914,107.93150492781152 L 468.80028460492633,84.30610264501613 L530.3691139094735,60.680700362220726"></path><path class="edge section-edge-1 edge-depth-2" d="M 383.188389052244,102.1597043441333 L 357.48789258362103,73.62538097035676 L331.78739611499805,45.091057596580214"></path><path class="edge section-edge-1 edge-depth-1" d="M 459.6076170895191,182.4632710452457 L 431.6108896817957,153.2951289262065 L403.61416227407227,124.1269868071673"></path><path class="edge section-edge-1 edge-depth-2" d="M 642.4626327063698,147.69333262794055 L 679.8426134399695,124.23201132830454 L717.2225941735691,100.77069002866853"></path><path class="edge section-edge-1 edge-depth-1" d="M 484.5954131412319,189.84709320689893 L 549.8762338491438,174.4762041378858 L615.1570545570556,159.10531506887264"></path><path class="edge section-edge-1 edge-depth-0" d="M 542.7700234264796,268.11966368197074 L 511.6111593679959,236.07907334213542 L480.4522953095122,204.0384830023001"></path><path class="edge section-edge-2 edge-depth-1" d="M 737.9458171455051,266.9775673906403 L 775.986624960489,241.12740386086148 L814.027432775473,215.27724033108268"></path><path class="edge section-edge-2 edge-depth-2" d="M 900.8560456489039,304.6088303017879 L 940.1388576360982,283.58671248739165 L979.4216696232926,262.5645946729953"></path><path class="edge section-edge-2 edge-depth-2" d="M 897.2537374610428,323.19275246432244 L 920.7140025557561,351.2446566911699 L944.1742676504695,379.29656091801735"></path><path class="edge section-edge-2 edge-depth-1" d="M 740.1771141265233,278.68442595346784 L 806.5849916003295,293.5473134116393 L872.9928690741358,308.4102008698108"></path><path class="edge section-edge-2 edge-depth-0" d="M 568.224597915388,278.57163255276015 L 639.3834414622855,277.1407460649573 L710.542285009183,275.7098595771544"></path></g><g class="mindmap-nodes"><g transform="translate(471.7290524692836, 254.92774272203425)" class="mindmap-node section-root"><g><rect width="162.99715423583984" ry="20" rx="20" height="47.89090805053711" class="node-bkg node-rounded-rect" id="node-0"></rect></g><g transform="translate(81.49857711791992, 10)"><text text-anchor="middle" dominant-baseline="middle" alignment-baseline="middle" dy="1em"><tspan dy="1em" x="0">Internet   protocol</tspan></text></g></g><g transform="translate(535.3773780804323, 349.8379378819467)" class="mindmap-node section-root"><g><path d="M0 32.89090805053711 v-27.890908050537107 q0,-5 5,-5 h134.7585220336914 q5,0 5,5 v32.89090805053711 H0 Z" class="node-bkg node-no-border" id="node-1"></path><line y2="37.89090805053711" x2="144.7585220336914" y1="37.89090805053711" x1="0" class="node-line--1"></line></g><g transform="translate(72.3792610168457, 5)"><text text-anchor="middle" dominant-baseline="middle" alignment-baseline="middle" dy="1em"><tspan dy="1em" x="0">Obtain   IP   Address</tspan></text></g></g><g transform="translate(687.9729409740713, 409.78498483104)" class="mindmap-node section-root"><g><path d="M0 32.89090805053711 v-27.890908050537107 q0,-5 5,-5 h101.65048217773438 q5,0 5,5 v32.89090805053711 H0 Z" class="node-bkg node-no-border" id="node-2"></path><line y2="37.89090805053711" x2="111.65048217773438" y1="37.89090805053711" x1="0" class="node-line--1"></line></g><g transform="translate(55.82524108886719, 5)"><text text-anchor="middle" dominant-baseline="middle" alignment-baseline="middle" dy="1em"><tspan dy="1em" x="0">Static   Config</tspan></text></g></g><g transform="translate(535.0527134278065, 436.0887686597961)" class="mindmap-node section-root"><g><path d="M0 32.89090805053711 v-27.890908050537107 q0,-5 5,-5 h48.942466735839844 q5,0 5,5 v32.89090805053711 H0 Z" class="node-bkg node-no-border" id="node-3"></path><line y2="37.89090805053711" x2="58.942466735839844" y1="37.89090805053711" x1="0" class="node-line--1"></line></g><g transform="translate(29.471233367919922, 5)"><text text-anchor="middle" dominant-baseline="middle" alignment-baseline="middle" dy="1em"><tspan dy="1em" x="0">DHCP</tspan></text></g></g><g transform="translate(308.6085952313666, 322.30521919440105)" class="mindmap-node section-0"><g><path d="M0 32.89090805053711 v-27.890908050537107 q0,-5 5,-5 h145.39048767089844 q5,0 5,5 v32.89090805053711 H0 Z" class="node-bkg node-no-border" id="node-4"></path><line y2="37.89090805053711" x2="155.39048767089844" y1="37.89090805053711" x1="0" class="node-line-0"></line></g><g transform="translate(77.69524383544922, 5)"><text text-anchor="middle" dominant-baseline="middle" alignment-baseline="middle" dy="1em"><tspan dy="1em" x="0">Address   Resolution</tspan></text></g></g><g transform="translate(365.1549840425931, 413.77298690854616)" class="mindmap-node section-0"><g><path d="M0 32.89090805053711 v-27.890908050537107 q0,-5 5,-5 h40.30183219909668 q5,0 5,5 v32.89090805053711 H0 Z" class="node-bkg node-no-border" id="node-5"></path><line y2="37.89090805053711" x2="50.30183219909668" y1="37.89090805053711" x1="0" class="node-line-0"></line></g><g transform="translate(25.15091609954834, 5)"><text text-anchor="middle" dominant-baseline="middle" alignment-baseline="middle" dy="1em"><tspan dy="1em" x="0">IPv4</tspan></text></g></g><g transform="translate(341.85372133884414, 503.6135756699597)" class="mindmap-node section-0"><g><path d="M0 32.89090805053711 v-27.890908050537107 q0,-5 5,-5 h38.20524597167969 q5,0 5,5 v32.89090805053711 H0 Z" class="node-bkg node-no-border" id="node-6"></path><line y2="37.89090805053711" x2="48.20524597167969" y1="37.89090805053711" x1="0" class="node-line-0"></line></g><g transform="translate(24.102622985839844, 5)"><text text-anchor="middle" dominant-baseline="middle" alignment-baseline="middle" dy="1em"><tspan dy="1em" x="0">DNS</tspan></text></g></g><g transform="translate(204.03899848057335, 344.37625036747954)" class="mindmap-node section-0"><g><path d="M0 32.89090805053711 v-27.890908050537107 q0,-5 5,-5 h41.69813537597656 q5,0 5,5 v32.89090805053711 H0 Z" class="node-bkg node-no-border" id="node-7"></path><line y2="37.89090805053711" x2="51.69813537597656" y1="37.89090805053711" x1="0" class="node-line-0"></line></g><g transform="translate(25.84906768798828, 5)"><text text-anchor="middle" dominant-baseline="middle" alignment-baseline="middle" dy="1em"><tspan dy="1em" x="0">MAC</tspan></text></g></g><g transform="translate(113.30624434163224, 414.3406566446055)" class="mindmap-node section-0"><g><path d="M0 32.89090805053711 v-27.890908050537107 q0,-5 5,-5 h38.74998474121094 q5,0 5,5 v32.89090805053711 H0 Z" class="node-bkg node-no-border" id="node-8"></path><line y2="37.89090805053711" x2="48.74998474121094" y1="37.89090805053711" x1="0" class="node-line-0"></line></g><g transform="translate(24.37499237060547, 5)"><text text-anchor="middle" dominant-baseline="middle" alignment-baseline="middle" dy="1em"><tspan dy="1em" x="0">ARP</tspan></text></g></g><g transform="translate(444.84377304924, 174.3394959116995)" class="mindmap-node section-1"><g><path d="M0 32.89090805053711 v-27.890908050537107 q0,-5 5,-5 h40.30183219909668 q5,0 5,5 v32.89090805053711 H0 Z" class="node-bkg node-no-border" id="node-9"></path><line y2="37.89090805053711" x2="50.30183219909668" y1="37.89090805053711" x1="0" class="node-line-1"></line></g><g transform="translate(25.15091609954834, 5)"><text text-anchor="middle" dominant-baseline="middle" alignment-baseline="middle" dy="1em"><tspan dy="1em" x="0">IPv4</tspan></text></g></g><g transform="translate(200.99502607595764, 203.52135866713093)" class="mindmap-node section-1"><g><path d="M0 32.89090805053711 v-27.890908050537107 q0,-5 5,-5 h178.82101440429688 q5,0 5,5 v32.89090805053711 H0 Z" class="node-bkg node-no-border" id="node-10"></path><line y2="37.89090805053711" x2="188.82101440429688" y1="37.89090805053711" x1="0" class="node-line-1"></line></g><g transform="translate(94.41050720214844, 5)"><text text-anchor="middle" dominant-baseline="middle" alignment-baseline="middle" dy="1em"><tspan dy="1em" x="0">Network   and   Host   parts</tspan></text></g></g><g transform="translate(15, 194.69381292955302)" class="mindmap-node section-1"><g><path d="M0 32.89090805053711 v-27.890908050537107 q0,-5 5,-5 h121.74715423583984 q5,0 5,5 v32.89090805053711 H0 Z" class="node-bkg node-no-border" id="node-11"></path><line y2="37.89090805053711" x2="131.74715423583984" y1="37.89090805053711" x1="0" class="node-line-1"></line></g><g transform="translate(65.87357711791992, 5)"><text text-anchor="middle" dominant-baseline="middle" alignment-baseline="middle" dy="1em"><tspan dy="1em" x="0">Address   Classes</tspan></text></g></g><g transform="translate(313.93021521480307, 94.3598538901764)" class="mindmap-node section-1"><g><path d="M0 32.89090805053711 v-27.890908050537107 q0,-5 5,-5 h148.59375 q5,0 5,5 v32.89090805053711 H0 Z" class="node-bkg node-no-border" id="node-12"></path><line y2="37.89090805053711" x2="158.59375" y1="37.89090805053711" x1="0" class="node-line-1"></line></g><g transform="translate(79.296875, 5)"><text text-anchor="middle" dominant-baseline="middle" alignment-baseline="middle" dy="1em"><tspan dy="1em" x="0">Reserved   Addresses</tspan></text></g></g><g transform="translate(119.2802897208785, 78.29607910569462)" class="mindmap-node section-1"><g><path d="M0 32.89090805053711 v-27.890908050537107 q0,-5 5,-5 h129.17613220214844 q5,0 5,5 v32.89090805053711 H0 Z" class="node-bkg node-no-border" id="node-13"></path><line y2="37.89090805053711" x2="139.17613220214844" y1="37.89090805053711" x1="0" class="node-line-1"></line></g><g transform="translate(69.58806610107422, 5)"><text text-anchor="middle" dominant-baseline="middle" alignment-baseline="middle" dy="1em"><tspan dy="1em" x="0">Network   Address</tspan></text></g></g><g transform="translate(469.65757475920975, 36.36144334931873)" class="mindmap-node section-1"><g><path d="M0 32.89090805053711 v-27.890908050537107 q0,-5 5,-5 h139.4318084716797 q5,0 5,5 v32.89090805053711 H0 Z" class="node-bkg node-no-border" id="node-14"></path><line y2="37.89090805053711" x2="149.4318084716797" y1="37.89090805053711" x1="0" class="node-line-1"></line></g><g transform="translate(74.71590423583984, 5)"><text text-anchor="middle" dominant-baseline="middle" alignment-baseline="middle" dy="1em"><tspan dy="1em" x="0">Broadcast   Address</tspan></text></g></g><g transform="translate(221.08818775029056, 15)" class="mindmap-node section-1"><g><path d="M0 32.89090805053711 v-27.890908050537107 q0,-5 5,-5 h191.32101440429688 q5,0 5,5 v32.89090805053711 H0 Z" class="node-bkg node-no-border" id="node-15"></path><line y2="37.89090805053711" x2="201.32101440429688" y1="37.89090805053711" x1="0" class="node-line-1"></line></g><g transform="translate(100.66050720214844, 5)"><text text-anchor="middle" dominant-baseline="middle" alignment-baseline="middle" dy="1em"><tspan dy="1em" x="0">Loopback   Testing   Address</tspan></text></g></g><g transform="translate(525.325962448425, 136.72200431353497)" class="mindmap-node section-1"><g><path d="M0 32.89090805053711 v-27.890908050537107 q0,-5 5,-5 h198.86363220214844 q5,0 5,5 v32.89090805053711 H0 Z" class="node-bkg node-no-border" id="node-16"></path><line y2="37.89090805053711" x2="208.86363220214844" y1="37.89090805053711" x1="0" class="node-line-1"></line></g><g transform="translate(104.43181610107422, 5)"><text text-anchor="middle" dominant-baseline="middle" alignment-baseline="middle" dy="1em"><tspan dy="1em" x="0">Public   and   Private   Address</tspan></text></g></g><g transform="translate(705.8805819135085, 73.85111029253699)" class="mindmap-node section-1"><g><path d="M0 32.89090805053711 v-27.890908050537107 q0,-5 5,-5 h38.093732833862305 q5,0 5,5 v32.89090805053711 H0 Z" class="node-bkg node-no-border" id="node-17"></path><line y2="37.89090805053711" x2="48.093732833862305" y1="37.89090805053711" x1="0" class="node-line-1"></line></g><g transform="translate(24.046866416931152, 5)"><text text-anchor="middle" dominant-baseline="middle" alignment-baseline="middle" dy="1em"><tspan dy="1em" x="0">NAT</tspan></text></g></g><g transform="translate(691.3716622423968, 256.4628413573432)" class="mindmap-node section-2"><g><path d="M0 32.89090805053711 v-27.890908050537107 q0,-5 5,-5 h58.335182189941406 q5,0 5,5 v32.89090805053711 H0 Z" class="node-bkg node-no-border" id="node-18"></path><line y2="37.89090805053711" x2="68.3351821899414" y1="37.89090805053711" x1="0" class="node-line-2"></line></g><g transform="translate(34.1675910949707, 5)"><text text-anchor="middle" dominant-baseline="middle" alignment-baseline="middle" dy="1em"><tspan dy="1em" x="0">Router</tspan></text></g></g><g transform="translate(768.1190628067551, 187.90105831384267)" class="mindmap-node section-2"><g><path d="M0 32.89090805053711 v-27.890908050537107 q0,-5 5,-5 h106.62986755371094 q5,0 5,5 v32.89090805053711 H0 Z" class="node-bkg node-no-border" id="node-19"></path><line y2="37.89090805053711" x2="116.62986755371094" y1="37.89090805053711" x1="0" class="node-line-2"></line></g><g transform="translate(58.31493377685547, 5)"><text text-anchor="middle" dominant-baseline="middle" alignment-baseline="middle" dy="1em"><tspan dy="1em" x="0">Routing   Table</tspan></text></g></g><g transform="translate(815.578174779063, 292.74087741539836)" class="mindmap-node section-2"><g><path d="M0 32.89090805053711 v-27.890908050537107 q0,-5 5,-5 h134.10511016845703 q5,0 5,5 v32.89090805053711 H0 Z" class="node-bkg node-no-border" id="node-20"></path><line y2="37.89090805053711" x2="144.10511016845703" y1="37.89090805053711" x1="0" class="node-line-2"></line></g><g transform="translate(72.05255508422852, 5)"><text text-anchor="middle" dominant-baseline="middle" alignment-baseline="middle" dy="1em"><tspan dy="1em" x="0">Routing   Protocols</tspan></text></g></g><g transform="translate(971.2187217446593, 236.54163950884777)" class="mindmap-node section-2"><g><path d="M0 32.89090805053711 v-27.890908050537107 q0,-5 5,-5 h32.85652732849121 q5,0 5,5 v32.89090805053711 H0 Z" class="node-bkg node-no-border" id="node-21"></path><line y2="37.89090805053711" x2="42.85652732849121" y1="37.89090805053711" x1="0" class="node-line-2"></line></g><g transform="translate(21.428263664245605, 5)"><text text-anchor="middle" dominant-baseline="middle" alignment-baseline="middle" dy="1em"><tspan dy="1em" x="0">RIP</tspan></text></g></g><g transform="translate(922.673701944998, 371.85752791640436)" class="mindmap-node section-2"><g><path d="M0 32.89090805053711 v-27.890908050537107 q0,-5 5,-5 h52.24714660644531 q5,0 5,5 v32.89090805053711 H0 Z" class="node-bkg node-no-border" id="node-22"></path><line y2="37.89090805053711" x2="62.24714660644531" y1="37.89090805053711" x1="0" class="node-line-2"></line></g><g transform="translate(31.123573303222656, 5)"><text text-anchor="middle" dominant-baseline="middle" alignment-baseline="middle" dy="1em"><tspan dy="1em" x="0">EIGRP</tspan></text></g></g></g></svg>